<?xml version="1.0" encoding="UTF-8"?>
<svg id="Capa_2" data-name="Capa 2" xmlns="http://www.w3.org/2000/svg" viewBox="0 0 107.65 138.47">
  <defs>
    <style>
      .cls-1 {
        fill: #246760;
        stroke-width: 0px;
      }
    </style>
  </defs>
  <g id="Capa_1-2" data-name="Capa 1">
    <g>
      <path class="cls-1" d="M55.45,138.47c-1.02-.32-2.09-.54-3.06-.97-5.37-2.37-8.06-6.56-8.2-12.39-.05-2.16,0-4.32,0-6.69-1.55,0-3.01,0-4.48,0-3.36-.01-5.3-1.93-5.32-5.26-.01-2.43-.03-4.87.01-7.3.02-.85-.26-1.28-1.06-1.6-3.57-1.43-3.56-1.45-6.3,1.28-1.12,1.12-2.22,2.24-3.35,3.34-2.25,2.19-4.96,2.21-7.17.02-2.34-2.31-4.67-4.64-6.98-6.98-2.2-2.23-2.18-4.93.02-7.17,1.74-1.77,3.49-3.53,5.27-5.25.6-.58.74-1.09.39-1.89-1.53-3.53-1.5-3.54-5.33-3.54-1.62,0-3.25.03-4.87,0-3.02-.07-4.97-2.04-4.98-5.05-.02-3.34-.02-6.67,0-10.01.02-2.95,1.97-4.89,4.93-4.93,2.48-.03,4.96-.06,7.44.02,1.05.03,1.6-.35,1.85-1.32.07-.26.14-.54.29-.75,1.38-1.95.71-3.37-1-4.75-1.46-1.19-2.72-2.63-4.04-3.99-2.13-2.2-2.15-4.89,0-7.07,2.34-2.38,4.69-4.74,7.08-7.07,2.18-2.13,4.89-2.1,7.07.05,1.77,1.74,3.54,3.48,5.25,5.27.63.66,1.15.64,2,.43,2.96-.72,4.02-2.43,3.53-5.42-.24-1.49-.05-3.06-.04-4.59.02-3.23,1.91-5.14,5.11-5.16,1.48-.01,2.96,0,4.42,0,.11-.19.24-.31.23-.42-.28-2.96.92-5.53,2.04-8.15,2.67-6.25,5.26-12.53,7.91-18.79.74-1.74,2.12-2.58,3.68-2.3,1.44.26,2.21,1.23,2.75,2.52,2.61,6.27,5.16,12.57,7.92,18.78,1.37,3.08,2.15,6.17,1.88,9.54-.11,1.47-.02,2.95-.02,4.58h1.7c10.28,0,20.55,0,30.83,0,3.52,0,4.8,1.29,4.8,4.8,0,1.44.02,2.89,0,4.33-.03,1.45-.84,2.32-2.09,2.29-1.19-.03-1.94-.88-1.96-2.28-.02-1.62,0-3.24,0-4.98h-7.13c0,2.65,0,5.25,0,7.86,0,1.22.03,2.44-.02,3.65-.06,1.42-.83,2.21-2.04,2.2-1.22,0-1.97-.79-1.98-2.23-.03-3.47-.01-6.94-.02-10.41,0-.35-.06-.7-.1-1.11h-3.58c0,.69,0,1.34,0,2,0,3.11.01,6.22,0,9.33,0,1.58-.78,2.46-2.08,2.42-1.23-.03-1.96-.89-1.96-2.4-.01-3.74,0-7.47,0-11.31h-3.69c0,.5,0,.98,0,1.46,0,3.2,0,6.4,0,9.6,0,1.78-.66,2.64-1.98,2.66-1.36.02-2.07-.88-2.07-2.72-.01-3.16,0-6.31,0-9.47,0-.49,0-.97,0-1.55h-6.51v20.2h33.18c0-1.67,0-3.32,0-4.97.01-1.58.76-2.48,2.03-2.48,1.26,0,2.01.92,2.02,2.5,0,5.09.03,10.19,0,15.28-.05,6.49-4.66,11.45-11.14,12.08-.17.02-.34.07-.68.13,0,.53,0,1.06,0,1.59,0,7.62.04,15.23-.02,22.85-.04,5.16-3.9,9.13-8.84,9.23-5.26.1-9.35-3.84-9.38-9.22-.06-7.62-.02-15.23-.02-22.85,0-.53,0-1.06,0-1.25-2.55-.89-4.85-1.69-7.25-2.52,0,1.23,0,2.69,0,4.15,0,1.92-.71,2.88-2.08,2.85-1.34-.02-1.97-.92-1.97-2.8,0-17.8,0-35.61,0-53.41,0-.53,0-1.06,0-1.66h-6.91v71.69h6.91c0-2,0-3.93,0-5.85,0-1.61.73-2.49,2.01-2.49,1.27,0,2.03.91,2.04,2.49,0,10.05.04,20.1-.01,30.15-.04,6.57-4.34,11.62-10.84,12.95-.17.03-.32.14-.48.21h-3.52ZM44.1,95.5c-.41-.04-.76-.07-1.11-.1-5.66-.5-10.5-2.75-14.37-6.94-2.66-2.87-4.41-6.23-5.15-10.09-.23-1.22.37-2.14,1.41-2.4,1.15-.29,2.06.26,2.48,1.49.09.26.15.52.22.78,1.58,5.85,5.22,9.9,10.86,12.03,1.76.66,3.69.87,5.64,1.3v-6.24c-6.3-1.01-10.29-4.68-10.81-9.88-.26-2.59.17-5.02,1.57-7.25,2.14-3.41,5.34-5.07,9.24-5.42v-6.03c-.8.06-1.52.05-2.21.18-6.81,1.25-11.47,5.09-13.91,11.6-.6,1.61-1.55,2.23-2.79,1.8-1.19-.41-1.62-1.59-1.02-3.16,2.99-7.88,8.57-12.7,16.92-14.2,1-.18,2.02-.25,3.02-.37v-18.82c-1.48,0-2.87.05-4.25-.02-1.06-.05-1.44.34-1.42,1.4.05,2.57.03,5.14,0,7.71-.02,2.16-1.08,3.66-3.06,4.5-1.08.45-2.17.88-3.24,1.35-2.2.98-4.12.57-5.8-1.12-1.78-1.79-3.59-3.55-5.34-5.36-.65-.67-1.14-.68-1.79,0-2.17,2.22-4.37,4.43-6.6,6.59-.73.71-.67,1.21.03,1.88,1.78,1.72,3.53,3.48,5.26,5.25,1.79,1.82,2.1,3.6,1.12,5.92-.4.95-.79,1.91-1.17,2.87-.92,2.3-2.48,3.37-4.99,3.39-2.43.02-4.87.05-7.3-.02-1.11-.03-1.52.32-1.49,1.47.06,2.97.07,5.95,0,8.92-.03,1.22.46,1.56,1.6,1.53,2.52-.05,5.05-.03,7.57,0,2.17.02,3.66,1.08,4.49,3.07.42.99.81,2,1.24,2.99,1.07,2.48.76,4.23-1.13,6.14-1.71,1.73-3.41,3.47-5.17,5.15-.78.74-.73,1.26.02,1.99,2.17,2.1,4.31,4.23,6.4,6.41.82.85,1.35.7,2.09-.07,1.71-1.79,3.48-3.53,5.25-5.27,1.68-1.65,3.55-1.97,5.7-1.06.95.41,1.9.82,2.86,1.2,2.46.98,3.46,2.4,3.47,5.04.01,2.48-.04,4.96.04,7.43.01.44.48,1.23.79,1.25,1.6.13,3.21.06,4.85.06v-18.86ZM48.32,100.99h6.77V29.3h-6.77v71.69ZM70.3,64.05c0,.45,0,.88,0,1.31,0,2.16-.1,4.33.04,6.48.07,1.02.38,2.15.94,2.98,1.43,2.14,3.53,3.34,6.15,3.36,6.17.04,12.34.06,18.51,0,3.63-.04,6.83-2.58,7.35-6.16.37-2.58.07-5.26.07-7.96h-33.06ZM48.3,117.43c-.03.45-.07.8-.07,1.16.04,2.7-.09,5.41.17,8.09.42,4.3,4.21,7.62,8.52,7.74,4.38.12,8.48-2.87,9.01-7.13.4-3.21.08-6.52.08-9.85h-17.71ZM81.77,82.31c-.08.22-.14.3-.14.38,0,8.24-.05,16.48.03,24.72.02,2.08,1.31,3.51,3.23,4.26,3.38,1.31,6.81-1.16,6.83-4.94.04-7.79.01-15.58,0-23.37,0-.34-.08-.68-.13-1.05h-9.84ZM48.33,105.23v7.97h17.8v-7.97h-17.8ZM48.93,25.1h16.63c-1.06-2.52-2.04-4.92-3.09-7.29-.11-.26-.62-.48-.95-.48-2.84-.04-5.67-.04-8.51,0-.36,0-.9.28-1.03.57-1.04,2.33-2,4.7-3.05,7.2ZM44.08,81.09v-14.09c-3.95.14-6.86,3.25-6.81,7.18.05,3.77,3.07,6.87,6.81,6.91ZM57.24,5.28c-1.16,2.8-2.21,5.31-3.3,7.93h6.62c-1.09-2.61-2.14-5.13-3.32-7.93Z"/>
      <path class="cls-1" d="M7.19,19.12c0-1.98,0-3.96,0-5.95,0-1.58.65-2.73,2.05-3.52,3.41-1.92,6.79-3.89,10.17-5.88,1.42-.84,2.78-.84,4.2,0,3.38,1.98,6.77,3.94,10.17,5.87,1.39.79,2.06,1.94,2.06,3.53,0,3.96,0,7.93,0,11.89,0,1.59-.67,2.74-2.06,3.53-3.4,1.94-6.8,3.89-10.17,5.87-1.42.83-2.77.84-4.2,0-3.37-1.99-6.77-3.94-10.17-5.87-1.39-.79-2.08-1.93-2.06-3.52.02-1.98,0-3.96,0-5.95ZM31.79,19.23c0-1.67.07-3.34-.04-4.99-.04-.54-.44-1.27-.9-1.55-2.8-1.71-5.68-3.3-8.49-4.98-.64-.38-1.09-.33-1.7.04-2.82,1.67-5.7,3.26-8.5,4.96-.43.26-.85.94-.87,1.43-.08,3.33-.07,6.66,0,9.99,0,.46.38,1.1.78,1.34,2.85,1.72,5.72,3.39,8.64,4.99.43.24,1.23.23,1.67-.01,2.88-1.58,5.73-3.21,8.52-4.92.45-.28.82-1.02.86-1.58.11-1.57.04-3.15.04-4.72Z"/>
      <path class="cls-1" d="M81.38,3.23c1.26.08,2.19.69,2.55,1.87.91,3.01,2.83,4.91,5.84,5.82,1.18.36,1.83,1.33,1.85,2.57.01,1.3-.67,2.3-1.9,2.67-2.97.89-4.85,2.77-5.76,5.72-.38,1.23-1.31,1.93-2.64,1.93-1.33,0-2.26-.68-2.64-1.92-.91-2.95-2.77-4.85-5.75-5.73-1.23-.37-1.91-1.34-1.89-2.67.01-1.33.71-2.26,1.95-2.63,2.92-.87,4.78-2.73,5.67-5.64.4-1.3,1.35-1.97,2.73-2ZM81.33,16.48c.82-.8,2.18-2.13,3-2.93-.87-.85-2.23-2.18-2.97-2.9-.8.77-2.16,2.08-2.99,2.87.81.81,2.13,2.13,2.96,2.96Z"/>
      <path class="cls-1" d="M101.43,26.24c0,.93.03,1.74,0,2.53-.06,1.18-.86,2-1.92,2.05-1.12.05-1.99-.78-2.11-2.02-.04-.4-.01-.81-.01-1.22,0-.4,0-.79,0-1.34-.81,0-1.52.01-2.22,0-1.45-.03-2.37-.84-2.35-2.05.02-1.2.94-1.97,2.4-2,.67-.01,1.34,0,2.18,0,0-.89-.04-1.68,0-2.47.07-1.25.92-2.1,2.03-2.1,1.11,0,1.94.85,2.01,2.1.02.4,0,.81,0,1.22,0,.35,0,.71,0,1.26.82,0,1.57-.02,2.31,0,1.37.04,2.24.82,2.26,1.99.02,1.22-.88,2.03-2.32,2.06-.71.02-1.42,0-2.26,0Z"/>
      <path class="cls-1" d="M88.7,104.14c0,.81.06,1.62-.01,2.42-.1,1.14-1.02,1.95-2.08,1.87-1.13-.09-1.86-.75-1.92-1.88-.08-1.61-.08-3.23,0-4.84.06-1.13.81-1.78,1.93-1.87,1.05-.08,1.97.75,2.06,1.88.07.8.01,1.61.01,2.42Z"/>
      <path class="cls-1" d="M21.5,11.59c4.21,0,7.55,3.34,7.54,7.55-.02,4.19-3.44,7.58-7.59,7.53-4.14-.05-7.45-3.38-7.47-7.52-.02-4.21,3.3-7.56,7.52-7.57ZM24.97,19.14c.02-1.92-1.45-3.44-3.37-3.49-1.99-.04-3.54,1.46-3.56,3.43-.01,1.97,1.55,3.54,3.5,3.51,1.9-.03,3.41-1.54,3.42-3.46Z"/>
    </g>
  </g>
</svg>