<?xml version="1.0" encoding="UTF-8"?>
<svg id="Capa_2" data-name="Capa 2" xmlns="http://www.w3.org/2000/svg" viewBox="0 0 122.04 122.04">
  <defs>
    <style>
      .cls-1 {
        fill: none;
        stroke: #246760;
        stroke-miterlimit: 10;
        stroke-width: 4.2px;
      }
    </style>
  </defs>
  <g id="Capa_1-2" data-name="Capa 1">
    <path class="cls-1" d="M117.91,55.67c-1.09-1.58-2.25-3.12-3.41-4.65-1.74-2.28-2.51-4.83-2.21-7.7.22-2.15.45-4.31.66-6.46.37-3.75-.89-6.67-4.38-8.4-1.46-.72-2.93-1.47-4.47-2-4.24-1.46-7.05-4.26-8.51-8.5-.6-1.73-1.37-3.41-2.3-5-1.33-2.27-3.19-3.65-5.89-3.85-2.27-.17-4.49.19-6.71.51-3.82.55-7.32.04-10.36-2.54-1.21-1.03-2.53-1.94-3.84-2.85-4.05-2.81-6.88-2.82-10.92-.01-1.54,1.07-3.04,2.21-4.54,3.35-2.25,1.71-4.75,2.5-7.58,2.21-2.16-.22-4.31-.42-6.47-.66-4.13-.45-6.72.87-8.63,4.59-.97,1.89-1.8,3.84-2.61,5.81-1.22,2.95-3.28,4.99-6.22,6.25-2.25.97-4.56,1.8-6.67,3.06-2.22,1.32-3.55,3.18-3.75,5.82-.17,2.27.19,4.49.51,6.71.55,3.82.03,7.31-2.54,10.37-1.23,1.47-2.32,3.07-3.39,4.66-2.08,3.07-2.09,6.2-.01,9.28,1.17,1.73,2.39,3.42,3.67,5.06,1.9,2.44,2.76,5.15,2.41,8.25-.27,2.44-.51,4.88-.76,7.32-.05,3.23,1.35,5.58,4.16,7.13,1.83,1.01,3.76,1.8,5.69,2.56,3.43,1.35,5.81,3.64,7.17,7.1.82,2.09,1.64,4.18,2.81,6.12,1.33,2.21,3.18,3.55,5.83,3.75,2.27.17,4.49-.18,6.71-.51,3.87-.57,7.39,0,10.47,2.61,1.25,1.05,2.59,2.01,3.94,2.92,3.91,2.65,6.73,2.64,10.62-.06,1.65-1.14,3.24-2.36,4.85-3.56,2.12-1.57,4.48-2.33,7.13-2.08,2.16.2,4.31.4,6.47.63,4.58.48,7.07-.85,9.1-4.99.88-1.8,1.66-3.64,2.43-5.49,1.22-2.9,3.27-4.92,6.18-6.12,2.04-.84,4.05-1.75,6.03-2.72,3.33-1.62,4.7-4.39,4.43-8.02-.12-1.63-.29-3.26-.54-4.87-.58-3.81-.05-7.31,2.54-10.36,1.06-1.25,2-2.59,2.93-3.94,2.72-3.95,2.72-6.78.01-10.72ZM87.2,52.56c-1.83,1.93-3.75,3.77-5.63,5.65-6.97,6.97-13.94,13.94-20.91,20.91-3.33,3.33-6.81,3.31-10.16-.04-5.12-5.12-10.23-10.24-15.36-15.35-1.36-1.36-2.2-2.93-2.18-4.9.09-2.75,1.35-4.79,3.87-5.89,2.62-1.14,5.07-.65,7.13,1.32,2.36,2.26,4.64,4.61,6.96,6.92,1.3,1.3,2.65,2.56,3.89,3.92.65.72,1.01.58,1.63-.04,7.07-7.11,14.15-14.19,21.25-21.27,2.49-2.49,5.86-2.94,8.47-1.18,3.39,2.28,3.9,6.91,1.04,9.93Z"/>
  </g>
</svg>