<?xml version="1.0" encoding="UTF-8"?>
<svg id="Capa_2" data-name="Capa 2" xmlns="http://www.w3.org/2000/svg" viewBox="0 0 107.44 122.95">
  <defs>
    <style>
      .cls-1 {
        fill: #246760;
        stroke-width: 0px;
      }
    </style>
  </defs>
  <g id="Capa_1-2" data-name="Capa 1">
    <g>
      <path class="cls-1" d="M11.57,9.98C12.59,4.4,15.47,1.15,20.18.2c.88-.18,1.8-.19,2.71-.19C47.28,0,71.66,0,96.05,0c6.94,0,11.35,4.43,11.35,11.39,0,30-.05,60.01.04,90.01.02,7.21-5.27,11.8-11.11,11.58-.12,0-.24.04-.41.07-.11.76-.18,1.53-.33,2.28-.89,4.28-4.55,7.39-8.92,7.59-.37.02-.74.02-1.11.02-25.09,0-50.17,0-75.26,0-5.03,0-8.81-2.75-9.92-7.28-.26-1.07-.33-2.21-.33-3.31C.04,81.78.1,51.2,0,20.62c-.02-6.76,4.96-11.06,10.64-10.65.28.02.57,0,.93,0ZM70.03,12.97h-1.59c-19.31,0-38.61,0-57.92,0-4.77,0-7.47,2.67-7.47,7.41,0,30.74.03,61.48-.03,92.22,0,4.75,3.48,7.41,7.41,7.4,25-.1,50-.1,75,0,4.51.02,7.47-3.22,7.45-7.48-.09-25.09-.04-50.17-.04-75.26,0-.44,0-.89,0-1.48-.56,0-1,0-1.44,0-3.84,0-7.67.02-11.51,0-5.74-.04-9.81-4.1-9.85-9.83-.03-3.84,0-7.67,0-11.51,0-.44,0-.88,0-1.47ZM95.82,109.88c.28.04.43.09.59.09,4.58.17,7.98-3.29,7.98-8.17.01-30.21.01-60.42,0-90.63,0-5.05-3.16-8.16-8.21-8.16-7.88,0-15.76,0-23.64,0-16.67,0-33.34,0-50.01,0-4.3,0-7.42,2.75-7.83,6.97.5,0,.98,0,1.47,0,18.03,0,36.06.01,54.1-.02,1.29,0,2.24.35,3.16,1.28,7.06,7.12,14.15,14.21,21.27,21.28.83.83,1.15,1.68,1.15,2.84-.03,24.31-.02,48.62-.02,72.93v1.61ZM90.05,32.76c-5.65-5.66-11.38-11.4-17.01-17.05,0,3.52-.08,7.28.03,11.03.09,3.11,2.79,5.89,5.88,5.99,3.79.13,7.58.03,11.11.03Z"/>
      <path class="cls-1" d="M27.64,33.02c-4.37,0-8.75,0-13.12,0-2.62,0-4.16-1.51-4.21-4.11-.02-1.24-.04-2.48.01-3.71.09-2.16,1.63-3.78,3.79-3.79,8.99-.04,17.99-.04,26.98,0,2.15.01,3.69,1.66,3.76,3.81.04,1.24.03,2.48,0,3.71-.04,2.53-1.58,4.08-4.11,4.09-4.37.01-8.75,0-13.12,0ZM27.59,30.04c4.2,0,8.41,0,12.61,0,1.57,0,1.66-.1,1.67-1.71,0-.66,0-1.32,0-1.98,0-1.91-.05-1.97-1.92-1.97-5.48,0-10.96,0-16.44,0-2.84,0-5.69,0-8.53,0-1.5,0-1.65.16-1.67,1.6,0,.82.05,1.65-.01,2.47-.09,1.16.36,1.62,1.56,1.6,4.24-.05,8.49-.02,12.73-.02Z"/>
      <path class="cls-1" d="M60.41,46.06c7.79,0,15.59,0,23.38,0,.41,0,.92-.13,1.22.06.53.33,1.18.8,1.33,1.33.23.82-.39,1.37-1.21,1.56-.32.07-.66.04-.99.04-15.88,0-31.75,0-47.63,0-.45,0-1.01.07-1.31-.17-.43-.34-.98-.97-.92-1.4.07-.5.67-1.03,1.16-1.35.33-.21.88-.08,1.34-.08,7.88,0,15.75,0,23.63,0Z"/>
      <path class="cls-1" d="M60.28,73.33c-7.88,0-15.75,0-23.63,0-.41,0-.94.12-1.21-.09-.5-.39-1.16-.99-1.15-1.49.01-.48.75-1,1.26-1.37.25-.18.72-.06,1.09-.06,15.79,0,31.59,0,47.38,0,.33,0,.75-.11.97.05.52.37,1.18.8,1.34,1.33.24.81-.38,1.39-1.2,1.57-.4.09-.82.05-1.23.05-7.88,0-15.75,0-23.63,0Z"/>
      <path class="cls-1" d="M60.41,94.6c7.79,0,15.59,0,23.38,0,.41,0,.92-.13,1.22.05.53.33,1.18.79,1.33,1.33.24.82-.39,1.37-1.21,1.57-.31.07-.66.05-.98.05-15.88,0-31.75,0-47.63,0-.41,0-.94.09-1.2-.13-.46-.38-1.09-1.01-1.03-1.45.07-.52.75-1.02,1.27-1.37.29-.19.8-.06,1.21-.06,7.88,0,15.75,0,23.63,0Z"/>
      <path class="cls-1" d="M18.32,60.05c-1.36,0-2.72.04-4.08,0-2.21-.07-3.84-1.62-3.9-3.83-.07-2.8-.07-5.61,0-8.41.06-2.17,1.69-3.78,3.91-3.85,2.72-.08,5.44-.08,8.16,0,2.31.06,3.94,1.71,4,4.04.07,2.68.07,5.36,0,8.04-.07,2.4-1.73,3.96-4.13,4.01-1.32.03-2.64,0-3.96,0,0,0,0,0,0,0ZM18.36,57.05c1.24,0,2.47-.02,3.71,0,.87.02,1.35-.35,1.35-1.22.02-2.55.02-5.11,0-7.66,0-.79-.44-1.23-1.23-1.24-2.55-.01-5.11-.01-7.66,0-.78,0-1.21.41-1.21,1.23,0,2.55,0,5.11,0,7.66,0,.9.48,1.23,1.33,1.22,1.24-.02,2.47,0,3.71,0Z"/>
      <path class="cls-1" d="M18.32,84.31c-1.36,0-2.72.04-4.08,0-2.22-.08-3.84-1.62-3.9-3.82-.07-2.8-.07-5.61,0-8.41.06-2.18,1.69-3.79,3.9-3.85,2.72-.08,5.44-.07,8.16,0,2.3.06,3.94,1.71,4.01,4.04.07,2.68.07,5.36,0,8.04-.07,2.4-1.72,3.96-4.13,4.02-1.32.03-2.64,0-3.96,0,0,0,0,0,0,0ZM18.33,81.32c1.24,0,2.47-.03,3.71,0,.94.03,1.38-.41,1.38-1.32,0-2.47,0-4.94,0-7.42,0-.9-.42-1.39-1.34-1.39-2.47,0-4.94,0-7.41,0-.9,0-1.37.39-1.36,1.34.02,2.47.02,4.94,0,7.42,0,1.01.47,1.4,1.44,1.37,1.19-.04,2.39,0,3.58,0Z"/>
      <path class="cls-1" d="M18.39,108.58c-1.36,0-2.72.03-4.08,0-2.29-.07-3.92-1.61-3.97-3.89-.07-2.76-.07-5.53,0-8.29.05-2.19,1.66-3.84,3.84-3.91,2.76-.08,5.53-.08,8.29,0,2.24.06,3.87,1.7,3.94,3.97.08,2.72.08,5.44,0,8.16-.07,2.34-1.72,3.89-4.06,3.96-1.32.04-2.64,0-3.96,0ZM18.38,105.59c1.19,0,2.39-.03,3.58,0,.99.03,1.46-.39,1.46-1.37,0-2.47,0-4.94,0-7.42,0-.92-.48-1.35-1.39-1.34-2.47,0-4.94,0-7.41,0-.93,0-1.32.46-1.32,1.39.02,2.47.02,4.94,0,7.42,0,.94.44,1.34,1.37,1.32,1.24-.02,2.47,0,3.71,0Z"/>
      <path class="cls-1" d="M55.59,54.99c6.23,0,12.45,0,18.68,0,.37,0,.84-.13,1.09.05.51.37,1.19.87,1.25,1.39.06.44-.58,1.06-1.05,1.44-.26.21-.79.11-1.2.11-12.62,0-25.23,0-37.85,0-.16,0-.33,0-.49,0-1,0-1.69-.42-1.8-1.47-.09-.91.64-1.52,1.83-1.52,6.51-.01,13.03,0,19.54,0Z"/>
      <path class="cls-1" d="M55.44,79.26c6.35,0,12.7,0,19.05,0,.48,0,1.09-.03,1.42.23.39.32.76.96.7,1.41-.06.45-.58.95-1.03,1.22-.34.21-.88.12-1.33.12-12.53,0-25.07,0-37.6,0-.16,0-.33,0-.49,0-1.24-.03-2.04-.64-1.94-1.57.12-1.13.89-1.44,1.93-1.43,6.43.02,12.86,0,19.29,0Z"/>
      <path class="cls-1" d="M55.56,103.53c6.31,0,12.62,0,18.92,0,.45,0,1.01-.07,1.32.16.41.31.87.92.82,1.35-.06.49-.57,1.03-1.03,1.35-.32.22-.88.13-1.33.13-12.53,0-25.07,0-37.6,0-.16,0-.33,0-.49,0-1.25-.03-2.04-.63-1.95-1.57.11-1.13.88-1.44,1.92-1.44,6.47.02,12.95,0,19.42,0Z"/>
    </g>
  </g>
</svg>