<?xml version="1.0" encoding="UTF-8"?>
<svg id="Capa_2" data-name="Capa 2" xmlns="http://www.w3.org/2000/svg" viewBox="0 0 90.36 105.6">
  <defs>
    <style>
      .cls-1 {
        fill: #246760;
        stroke-width: 0px;
      }
    </style>
  </defs>
  <g id="Capa_1-2" data-name="Capa 1">
    <path class="cls-1" d="M48.27,0c2.27.35,4.54.66,6.8,1.06.73.13,1.48.38,2.1.77.99.61,1.23,1.64,1.29,2.77.29,5.35,3.49,9.45,8.37,10.75,2.87.76,5.65.42,8.3-.95,2.04-1.05,3.18-.85,4.73.86,4.69,5.16,8.09,11.06,10.2,17.71.67,2.1.25,3.22-1.64,4.44-7.19,4.62-7.17,14.67.05,19.28,1.83,1.17,2.25,2.31,1.6,4.36-2.12,6.68-5.52,12.62-10.25,17.8-1.5,1.64-2.68,1.85-4.66.83-5.16-2.68-11.34-1.26-14.57,3.4-.38.55-.6,1.3-.64,1.98-.16,2.91.09,5.88-.37,8.73-1.16,7.2-7.9,12.23-15.38,11.79-7.27-.43-13.24-6.28-13.68-13.52-.14-2.33-.01-4.67-.11-7.01-.03-.67-.25-1.43-.64-1.98-3.17-4.57-9.27-6.05-14.3-3.53-2.42,1.21-3.4,1.02-5.21-1-4.55-5.09-7.88-10.88-9.94-17.39-.69-2.19-.3-3.26,1.65-4.51,7.12-4.58,7.11-14.69-.03-19.23-1.9-1.21-2.31-2.31-1.64-4.43,2.13-6.72,5.56-12.68,10.33-17.86,1.38-1.5,2.64-1.73,4.41-.81,7.69,3.97,16.15-.74,16.84-9.39.21-2.64.77-3.34,3.39-3.84,1.95-.38,3.93-.59,5.9-.88C41.49.13,41.78.06,42.08,0c2.06,0,4.12,0,6.19,0ZM45.18,41.87c1.42-.99,2.73-1.93,4.08-2.82.52-.34.7-.73.7-1.35-.03-3.57-.02-7.15-.01-10.72,0-2.97,2.11-4.34,4.85-3.15,16.43,7.13,19.62,29.18,5.86,40.65-.52.43-.77.86-.76,1.56.04,2.68.01,5.36.02,8.04,0,.29.04.59.07.92.19-.07.29-.1.38-.15,4.88-3,10.02-3.5,15.43-1.69.28.09.84-.15,1.05-.41,2.78-3.36,4.9-7.12,6.49-11.18.23-.6.1-.89-.35-1.29-8.18-7.12-8.17-19.44.02-26.55.47-.41.57-.71.34-1.3-1.58-4.03-3.71-7.73-6.4-11.12-.45-.57-.81-.59-1.46-.37-10.21,3.47-20.84-2.73-22.89-13.32-.1-.52-.26-.82-.86-.92-4.59-.72-9.16-.73-13.75.14-.06.22-.14.42-.18.61-2.18,10.87-12.6,16.96-23.05,13.44-.59-.2-.91-.1-1.29.37-2.73,3.4-4.87,7.14-6.45,11.2-.2.52-.18.82.28,1.22,8.26,7.27,8.28,19.41.04,26.61-.48.42-.54.73-.32,1.3,1.58,4.03,3.71,7.73,6.41,11.11.4.5.73.63,1.36.4,3.29-1.18,6.67-1.38,10.03-.46,1.89.51,3.68,1.4,5.55,2.13.01-.18.05-.48.05-.77,0-2.68.04-5.36-.03-8.04-.01-.49-.32-1.13-.7-1.44-13.75-11.45-10.6-33.56,5.81-40.69,2.8-1.22,4.89.14,4.9,3.18,0,3.57-.01,7.15.02,10.72,0,.36.15.85.41,1.05,1.4,1.05,2.85,2.02,4.34,3.06ZM34.23,31.74c-.49.4-.8.64-1.1.91-8.45,7.56-7.75,21.15,1.5,27.82,1.44,1.04,2.03,2.24,2.02,3.98-.06,5.91-.03,11.82-.02,17.73,0,3.06-.1,6.12.06,9.17.28,5.54,5.54,9.21,10.87,7.7,3.81-1.08,6.17-4.33,6.18-8.6.02-8.59.04-17.18-.02-25.77-.01-1.9.59-3.19,2.15-4.33,9.15-6.67,9.76-20.34,1.31-27.76-.29-.25-.6-.48-1.04-.83,0,2.82-.03,5.39.01,7.97.03,1.41-.51,2.43-1.66,3.21-2.39,1.62-4.74,3.29-7.11,4.93-1.68,1.16-2.72,1.15-4.43-.03-2.17-1.51-4.3-3.08-6.53-4.51-1.58-1.01-2.31-2.27-2.21-4.18.13-2.38.03-4.78.03-7.42Z"/>
  </g>
</svg>