<?xml version="1.0" encoding="UTF-8"?>
<svg id="Capa_2" data-name="Capa 2" xmlns="http://www.w3.org/2000/svg" viewBox="0 0 109.47 114.34">
  <defs>
    <style>
      .cls-1 {
        fill: #246760;
        stroke-width: 0px;
      }
    </style>
  </defs>
  <g id="Capa_1-2" data-name="Capa 1">
    <g>
      <path class="cls-1" d="M86.22,114.34h-4.24c-.21-.06-.42-.16-.63-.19-3.16-.35-6.04-1.47-8.81-2.98-.68-.37-1.51-.64-2.28-.64-17.16-.04-34.32-.03-51.48-.03-2.08,0-4.17.02-6.25,0-2.06-.03-3.75-.85-4.63-2.74-.45-.97-.62-2.15-.62-3.23-.03-27.13-.03-54.26-.03-81.39,0-.5-.04-1-.07-1.59-.71,0-1.3.01-1.89,0C2.06,21.46.02,19.37,0,16.15c0-1.75,0-3.5,0-5.25C.03,4.56,4.58,0,10.94,0,35.17,0,59.41,0,83.64.02c.99,0,2.02.1,2.98.35,4.84,1.26,7.88,5.36,7.89,10.59.01,13.84,0,27.69,0,41.53,0,1.75-.02,3.5.02,5.25,0,.31.16.82.38.91,2.06.82,3.42,2.3,4.19,4.32.2-.01.32,0,.41-.03,4.3-1.75,10.09.83,9.96,7.39-.09,4.72.02,9.45-.04,14.18-.05,4.77-.93,9.4-2.91,13.76-3.56,7.83-9.17,13.36-17.72,15.51-.86.22-1.72.37-2.59.56ZM65.96,106.04c-1.78-2.25-3.42-4.31-5.05-6.39-4.15-5.31-8.28-10.63-12.42-15.93-1.84-2.35-2.73-4.95-2.03-7.92.75-3.2,2.61-5.54,5.8-6.51,3.15-.95,5.76.21,7.93,2.53,1.4,1.49,2.79,2.99,4.19,4.49.21.23.45.42.83.77,0-.47,0-.72,0-.97,0-9.57-.01-19.13-.02-28.7,0-2.08-.05-4.17.04-6.25.19-4.3,4.09-7.38,8.32-6.63,3.56.63,5.9,3.24,5.98,6.87.09,3.91.03,7.82.04,11.72,0,.4,0,.79,0,1.26,4.47-1.09,7.75.16,9.63,4.34.92.04.83-.57.83-1.13,0-15.63,0-31.26,0-46.9,0-3.51-2.6-6.18-5.96-6.23-3.44-.05-6.09,2.57-6.17,6.13-.04,1.67,0,3.35-.01,5.02,0,3.96-1.95,5.91-5.88,5.92-6.29,0-12.58,0-18.87,0-.41,0-.82,0-1.22-.06-1.05-.17-1.8-1.03-1.85-2.07-.05-1.07.7-2.04,1.78-2.24.47-.09.96-.09,1.44-.09,6.14,0,12.28,0,18.43,0q1.7,0,1.7-1.75c0-1.53.01-3.05,0-4.58-.02-2.02.47-3.9,1.5-5.64.1-.17.16-.37.27-.63-.92,0-1.74,0-2.56,0-20.55,0-41.1,0-61.65,0-3.95,0-6.49,2.54-6.51,6.49,0,1.53,0,3.05,0,4.58,0,1.53,0,1.54,1.57,1.54,8.34,0,16.68,0,25.02,0,.45,0,.9,0,1.34.05,1.24.16,2.05,1.09,2.01,2.27-.04,1.13-.85,1.99-2.05,2.11-.41.04-.82.03-1.23.03-5.99,0-11.99,0-17.98,0-.43,0-.87,0-1.44,0,0,.58,0,1.01,0,1.45,0,27.1,0,54.19,0,81.29q0,1.76,1.71,1.76c17.09,0,34.17,0,51.26,0,.36,0,.72,0,1.28,0ZM69.67,60.74s.02,0,.03,0c0,5.88,0,11.76,0,17.64,0,.92-.03,1.87-.22,2.77-.48,2.18-2.45,3.03-4.37,1.89-.76-.45-1.45-1.05-2.06-1.68-2.12-2.2-4.16-4.46-6.28-6.66-1.88-1.95-4.23-1.58-5.48.83-.98,1.9-.63,3.67.65,5.31,5.14,6.61,10.25,13.24,15.46,19.79,1.36,1.7,2.93,3.29,4.6,4.68,7.66,6.37,17.81,5.98,25.03-.89,3.96-3.77,6.26-8.48,7.27-13.79,1.35-7.04.51-14.18.68-21.27,0-.04,0-.07-.01-.11-.25-1.49-1.31-2.39-2.78-2.36-1.44.03-2.44.9-2.59,2.4-.12,1.22-.08,2.45-.09,3.68-.01,2.07-.73,3.11-2.19,3.14-1.48.03-2.28-1.08-2.28-3.18,0-2.57.03-5.14-.06-7.7-.07-1.84-1.52-2.86-3.33-2.49-1.29.26-2.04,1.24-2.06,2.79-.03,2.72,0,5.43-.02,8.15-.02,1.43-.98,2.43-2.24,2.43-1.26,0-2.2-1-2.21-2.43-.02-2.83,0-5.66,0-8.48,0-1.34.05-2.68-.03-4.02-.12-1.97-1.59-3.07-3.43-2.65-1.31.29-2.03,1.31-2.04,3.06-.03,3.09,0,6.18-.01,9.27,0,1.04.03,2.09-.02,3.13-.06,1.19-.91,2.04-2.04,2.13-1.08.09-2.1-.69-2.32-1.83-.08-.43-.08-.89-.08-1.33,0-10.05,0-20.1,0-30.14,0-.52,0-1.05-.05-1.56-.12-1.04-.65-1.8-1.67-2.16-2-.71-3.7.54-3.71,2.8-.03,6.29,0,12.58,0,18.87Z"/>
      <path class="cls-1" d="M29.09,29.51c1.34,0,2.68-.02,4.01,0,2.7.04,4.52,1.76,4.57,4.43.06,2.82.06,5.65,0,8.47-.06,2.59-1.8,4.32-4.39,4.37-2.82.05-5.65.05-8.47,0-2.69-.04-4.44-1.84-4.46-4.53-.02-2.75-.02-5.5,0-8.25.02-2.66,1.82-4.45,4.5-4.5,1.41-.03,2.82,0,4.24,0ZM24.87,42.26h8.25v-8.22h-8.25v8.22Z"/>
      <path class="cls-1" d="M39.65,55.15c5.58,0,11.15,0,16.73,0,1.49,0,2.47.81,2.56,2.07.08,1.12-.76,2.17-1.94,2.35-.4.06-.82.04-1.22.04-10.74,0-21.49,0-32.23,0-.26,0-.52,0-.78,0-1.41-.06-2.42-1.01-2.4-2.26.01-1.27,1.01-2.19,2.44-2.2,5.61-.01,11.23,0,16.84,0Z"/>
      <path class="cls-1" d="M34.52,93.56c3.83,0,7.67.01,11.5,0,1.06,0,1.92.33,2.38,1.32.71,1.51-.39,3.11-2.16,3.14-2.2.04-4.39,0-6.59,0-5.58,0-11.16,0-16.75,0-1.92,0-3.08-1.64-2.29-3.2.47-.93,1.28-1.27,2.3-1.27,3.87.01,7.74,0,11.61,0Z"/>
      <path class="cls-1" d="M31.76,72.4c-2.94,0-5.88,0-8.81,0-1.56,0-2.56-.85-2.59-2.16-.04-1.33,1.02-2.29,2.6-2.3,5.91-.01,11.83-.02,17.74,0,1.55,0,2.52.91,2.52,2.24,0,1.33-.97,2.2-2.52,2.21-2.97.02-5.95,0-8.92,0Z"/>
      <path class="cls-1" d="M53.8,33.97c-2.86,0-5.72,0-8.58,0-1.65,0-2.6-.84-2.58-2.24.02-1.33.98-2.21,2.53-2.21,5.72-.02,11.44-.01,17.16,0,1.59,0,2.64.95,2.62,2.28-.02,1.33-1.05,2.18-2.68,2.18-2.82,0-5.65,0-8.47,0Z"/>
      <path class="cls-1" d="M30.69,80.77c2.56,0,5.13-.01,7.69,0,1.64.01,2.65.87,2.66,2.21,0,1.34-1.02,2.24-2.64,2.25-5.17.01-10.33,0-15.5,0-1.05,0-1.89-.35-2.35-1.37-.37-.83-.31-1.71.36-2.26.55-.45,1.36-.78,2.07-.8,2.56-.09,5.13-.04,7.69-.04Z"/>
      <path class="cls-1" d="M51.89,46.8c-2.3,0-4.6,0-6.91,0-1.07,0-1.89-.48-2.24-1.51-.29-.87-.15-1.75.61-2.32.45-.33,1.07-.59,1.61-.59,4.6-.05,9.21-.05,13.81-.02,1.44.01,2.41,1,2.37,2.26-.03,1.23-.96,2.14-2.36,2.17-2.3.04-4.6.01-6.91.01Z"/>
      <path class="cls-1" d="M44.46,19.36c-.03,1.22-1.01,2.16-2.24,2.15-1.23-.01-2.21-.99-2.21-2.2,0-1.24,1.06-2.26,2.31-2.21,1.22.04,2.17,1.04,2.14,2.26Z"/>
    </g>
  </g>
</svg>