<?xml version="1.0" encoding="UTF-8"?>
<svg id="Capa_2" data-name="Capa 2" xmlns="http://www.w3.org/2000/svg" viewBox="0 0 110.8 110.86">
  <defs>
    <style>
      .cls-1 {
        fill: #246760;
        stroke-width: 0px;
      }
    </style>
  </defs>
  <g id="Capa_1-2" data-name="Capa 1">
    <g>
      <path class="cls-1" d="M74.04,30.2c4.67,1.73,6.49,4.77,5.7,9.5,4.55,1.54,6.5,4.7,5.74,9.59,2.83.81,4.87,2.56,5.66,5.49.8,2.95-.14,5.47-2.26,7.7,2.35,2.34,4.63,4.64,6.96,6.91.16.15.6.14.85.04,3.22-1.2,6.02-.58,8.44,1.86,1.15,1.16,2.32,2.28,3.45,3.45,2.94,3.05,2.99,7.41,0,10.41-7.75,7.8-15.53,15.57-23.34,23.31-2.99,2.97-7.39,2.92-10.41-.02-1.24-1.21-2.48-2.43-3.69-3.68-2.26-2.34-2.8-5.03-1.69-8.09.12-.33.02-.93-.21-1.17-2.63-2.69-5.3-5.34-7.97-7.98-.23-.22-.61-.4-.92-.41-2.45-.09-4.91-.08-7.37-.22-2.14-.13-3.89.35-5.39,2.07-1.92,2.2-4.1,4.18-6.19,6.23-.45.44-.54.76-.24,1.37,1.34,2.81.86,5.88-1.27,8.14-1.31,1.39-2.67,2.75-4.07,4.07-3,2.81-7.31,2.76-10.26-.1-1.56-1.51-3.08-3.05-4.61-4.6-1.03-1.05-1.08-2.37-.17-3.27.91-.9,2.2-.83,3.27.21,1.4,1.37,2.76,2.76,4.15,4.14,1.8,1.79,3.3,1.77,5.12-.04.95-.94,1.89-1.89,2.84-2.84,1.83-1.83,1.83-3.09.01-4.95-3.42-3.48-6.83-6.97-10.27-10.43-3.82-3.85-7.67-7.67-11.52-11.5-.54-.53-1.1-1.04-1.69-1.51-.89-.72-2.45-.65-3.4.24-1.43,1.33-2.82,2.7-4.15,4.13-1.12,1.21-1.01,2.81.23,4.09,1.48,1.53,3.01,3.03,4.52,4.53.67.66.98,1.43.7,2.36-.46,1.5-2.33,2.07-3.51.96-1.87-1.76-3.73-3.54-5.42-5.47-2.34-2.68-2.19-6.79.24-9.43,1.4-1.51,2.85-2.99,4.38-4.37,2.03-1.84,4.44-2.37,7.06-1.53.79.25,1.23.09,1.77-.47,2.04-2.1,4.13-4.15,6.2-6.22.05-.05.08-.12.18-.25-1.93-1.98-2.91-4.33-2.35-7.15.55-2.78,2.26-4.61,4.91-5.74-1.35-2.26-1.69-4.63-.72-7.06.97-2.44,2.83-3.95,5.37-4.63-.75-4.84,1.15-8.04,5.77-9.62-.51-2.51-.2-4.86,1.49-6.84,2.03-2.39,4.63-3.2,7.7-2.56.3.06.73.18.9.03,1.95-1.71,4.23-1.49,6.49-1.08,4.69.84,9.37,1.78,14.06,2.64.85.16,1.74.05,2.59.19,4.39.69,7.08,4.44,6.4,8.87-.03.21-.04.43-.07.7ZM85.46,65.51c-.35.45-.71,1-1.17,1.45-.63.63-1.41.87-2.29.54-1.58-.58-1.95-2.41-.7-3.7,1.58-1.64,3.25-3.2,4.81-4.85,1.24-1.3,1.21-3.19.03-4.41-1.22-1.27-3.1-1.35-4.49-.14-.63.54-1.18,1.17-1.78,1.74-1.13,1.08-2.43,1.14-3.35.17-.86-.91-.76-2.21.28-3.27,1.19-1.21,2.43-2.38,3.59-3.62,1.24-1.34,1.19-3.28-.05-4.49-1.26-1.23-3.12-1.24-4.49,0-.67.61-1.28,1.27-1.93,1.91-1.11,1.09-2.43,1.19-3.35.28-.93-.92-.85-2.23.25-3.35,1.29-1.32,2.64-2.58,3.89-3.93,1.25-1.35,1.17-3.26-.1-4.49-1.25-1.21-3.15-1.19-4.5.07-.69.64-1.32,1.34-2,1.98-1.06,1.01-2.39,1.05-3.28.14-.89-.91-.81-2.22.23-3.28,1.19-1.21,2.41-2.4,3.61-3.61,1.53-1.54,1.63-3.46.27-4.81-1.35-1.35-3.27-1.25-4.81.28-1.75,1.73-3.46,3.49-5.23,5.2-.53.51-.66.89-.32,1.64,2.1,4.62-.95,10.05-5.92,10.55-.85.09-1.05.4-1.14,1.16-.42,3.45-3.13,6.13-6.56,6.48-.69.07-.98.25-1.05,1-.29,3.05-2.42,5.56-5.38,6.39-.69.19-1.41.28-2.1.41-1.03,6.33-5.33,8.89-11.18,6.69-.21-.08-.6-.06-.74.08-2.26,2.23-4.5,4.48-6.62,6.6,6.7,6.74,13.35,13.42,20.03,20.15.22-.21.48-.44.74-.69,2.36-2.35,4.72-4.69,7.06-7.06,1.17-1.19,2.58-1.87,4.2-2.06,1.07-.13,2.16-.15,3.25-.12,1.81.05,3.61.21,5.42.26,2.45.06,4.67-.51,6.27-2.56.2-.25.45-.47.69-.69,1.08-1.04,2.35-1.14,3.27-.26.97.93.87,2.18-.17,3.36-.93,1.05-1.78,2.17-2.62,3.2,2.01,2.01,4.36,4.36,6.66,6.68,6.62-6.65,13.27-13.33,19.83-19.91-2.21-2.23-4.52-4.55-7.05-7.1ZM80.11,106.53c.8-.46,1.62-.74,2.18-1.29,7.72-7.66,15.42-15.35,23.1-23.05,1.38-1.39,1.37-3.02.03-4.41-1.18-1.22-2.39-2.42-3.61-3.6-1.36-1.3-3.01-1.34-4.34-.02-7.76,7.72-15.51,15.46-23.24,23.21-1.28,1.29-1.27,2.95-.02,4.26,1.22,1.28,2.46,2.55,3.78,3.73.56.5,1.34.75,2.13,1.17ZM43.62,46.87c1.76-.07,2.76-.64,3.3-1.84.57-1.27.43-2.52-.55-3.52-2.65-2.71-5.34-5.4-8.06-8.04-1.32-1.28-3.25-1.2-4.49.05-1.23,1.24-1.28,3.16.01,4.48,2.63,2.69,5.28,5.35,8,7.96.55.53,1.42.74,1.78.93ZM38.39,26.31c.47.81.82,1.74,1.45,2.4,2.16,2.28,4.42,4.46,6.65,6.68,1,.99,1.97,2.01,3,2.97.99.92,2.17,1.13,3.42.62,1.21-.5,1.85-1.46,1.96-2.76.1-1.23-.33-1.78-1.45-2.3-4.43-2.04-7.75-5.2-9.64-9.77-.17-.4-.59-.83-1-.97-2.05-.7-4.11.81-4.39,3.12ZM39.73,51.21c-.26-.62-.38-1.37-.82-1.83-2.14-2.25-4.32-4.47-6.59-6.6-1.16-1.09-3.02-.89-4.16.2-1.15,1.1-1.44,2.96-.36,4.13,2.15,2.34,4.42,4.58,6.74,6.75.94.88,2.22.84,3.36.24,1.12-.58,1.67-1.56,1.82-2.89ZM31.98,58.67c-.07-.25-.07-.81-.35-1.12-1.16-1.26-2.29-2.6-3.66-3.62-1.2-.89-2.92-.38-3.88.79-.92,1.13-.99,2.87,0,4,.85.98,1.78,1.9,2.77,2.73,1,.83,2.19.89,3.35.32,1.17-.58,1.73-1.58,1.77-3.1ZM59.86,23.89c-3.97-.6-7.88-1.76-12.2-2.01,1.24,3.74,3.74,5.93,6.57,7.66,1.92-1.92,3.74-3.75,5.63-5.65Z"/>
      <rect class="cls-1" x="13.11" y="91.18" width="4.35" height="8.25" rx="2.15" ry="2.15" transform="translate(-63.72 39.86) rotate(-45.83)"/>
      <rect class="cls-1" x="22.14" y="-1.28" width="4.35" height="15.64" rx="2.15" ry="2.15" transform="translate(2.68 19.42) rotate(-45.83)"/>
      <rect class="cls-1" x="53.18" y="0" width="4.35" height="13.77" rx="2.15" ry="2.15" transform="translate(-.09 .8) rotate(-.83)"/>
      <rect class="cls-1" x="84.27" y="-1.08" width="4.35" height="15.23" rx="2.15" ry="2.15" transform="translate(29.94 -59.22) rotate(45)"/>
      <rect class="cls-1" x="72.01" y="69.92" width="4.35" height="6.67" rx="2.15" ry="2.15" transform="translate(76.34 177.49) rotate(-135.83)"/>
    </g>
  </g>
</svg>